<?xml version="1.0" encoding="iso-8859-1"?>
<!-- Generator: Adobe Illustrator 19.0.0, SVG Export Plug-In . SVG Version: 6.00 Build 0)  -->
<svg version="1.1" id="Capa_1" xmlns="http://www.w3.org/2000/svg" xmlns:xlink="http://www.w3.org/1999/xlink" x="0px" y="0px"
	 viewBox="0 0 512 512" style="enable-background:new 0 0 512 512;" xml:space="preserve">
<g>
	<g>
		<path d="M256,314.209c-9.842,0-17.819,7.977-17.819,17.819v55.833c0,9.842,7.977,17.819,17.819,17.819s17.825-7.977,17.819-17.819
			v-55.833C273.819,322.186,265.842,314.209,256,314.209z"/>
	</g>
</g>
<g>
	<g>
		<path d="M256,0c-66.809,0-121.169,54.354-121.169,121.169v80.78h35.638v-80.78c0-47.161,38.37-85.531,85.531-85.531
			s85.531,38.37,85.531,85.531v84.937h35.638v-84.937C377.169,54.354,322.809,0,256,0z"/>
	</g>
</g>
<g>
	<g>
		<path d="M256,150.868c-99.567,0-180.566,81.005-180.566,180.566S156.433,512,256,512c99.561,0,180.566-80.999,180.566-180.566
			S355.561,150.868,256,150.868z M256,476.362c-79.912,0-144.928-65.016-144.928-144.928S176.088,186.506,256,186.506
			c79.918,0,144.928,65.016,144.928,144.928S335.918,476.362,256,476.362z"/>
	</g>
</g>
<g>
</g>
<g>
</g>
<g>
</g>
<g>
</g>
<g>
</g>
<g>
</g>
<g>
</g>
<g>
</g>
<g>
</g>
<g>
</g>
<g>
</g>
<g>
</g>
<g>
</g>
<g>
</g>
<g>
</g>
</svg>
